<svg width="22" height="39" viewBox="0 0 35 35" fill="none" xmlns="http://www.w3.org/2000/svg">
    <path d="M29.1812 33.5562C31.5974 33.5562 33.5562 31.5975 33.5562 29.1812C33.5562 26.765 31.5974 24.8062 29.1812 24.8062C26.7649 24.8062 24.8062 26.765 24.8062 29.1812C24.8062 31.5975 26.7649 33.5562 29.1812 33.5562Z" fill="#DC3E93"/>
    <path d="M26.2499 4.37499H9.96033C9.61632 3.40197 8.9394 2.58189 8.04922 2.05969C7.15904 1.5375 6.11291 1.34681 5.09572 1.52133C4.07854 1.69585 3.15581 2.22434 2.4906 3.0134C1.82539 3.80246 1.46055 4.80128 1.46055 5.83332C1.46055 6.86537 1.82539 7.86418 2.4906 8.65324C3.15581 9.4423 4.07854 9.9708 5.09572 10.1453C6.11291 10.3198 7.15904 10.1291 8.04922 9.60695C8.9394 9.08476 9.61632 8.26468 9.96033 7.29166H26.2499C27.4102 7.29166 28.523 7.75259 29.3435 8.57306C30.164 9.39354 30.6249 10.5063 30.6249 11.6667C30.6249 12.827 30.164 13.9398 29.3435 14.7602C28.523 15.5807 27.4102 16.0417 26.2499 16.0417H21.627C21.3205 15.1971 20.7613 14.4673 20.0255 13.9516C19.2897 13.4359 18.413 13.1593 17.5145 13.1593C16.616 13.1593 15.7393 13.4359 15.0035 13.9516C14.2677 14.4673 13.7085 15.1971 13.402 16.0417H8.74992C6.81605 16.0417 4.96138 16.8099 3.59393 18.1773C2.22648 19.5448 1.45825 21.3995 1.45825 23.3333C1.45825 25.2672 2.22648 27.1219 3.59393 28.4893C4.96138 29.8568 6.81605 30.625 8.74992 30.625H17.4999V35L23.3333 29.1667L17.4999 23.3333V27.7083H8.74992C7.5896 27.7083 6.4768 27.2474 5.65633 26.4269C4.83585 25.6064 4.37492 24.4936 4.37492 23.3333C4.37492 22.173 4.83585 21.0602 5.65633 20.2397C6.4768 19.4193 7.5896 18.9583 8.74992 18.9583H13.4166C13.726 19.798 14.2854 20.5227 15.0195 21.0345C15.7535 21.5463 16.6269 21.8207 17.5218 21.8207C18.4167 21.8207 19.29 21.5463 20.0241 21.0345C20.7582 20.5227 21.3176 19.798 21.627 18.9583H26.2499C28.1838 18.9583 30.0385 18.1901 31.4059 16.8226C32.7734 15.4552 33.5416 13.6005 33.5416 11.6667C33.5416 9.73279 32.7734 7.87812 31.4059 6.51067C30.0385 5.14322 28.1838 4.37499 26.2499 4.37499V4.37499Z" fill="#DC3E93"/>
</svg>