<svg width="45" height="45" viewBox="0 0 45 45" fill="none" xmlns="http://www.w3.org/2000/svg">
    <g path="url(#clip0_223_2143)">
        <path d="M17.9999 3C16.4086 3 14.8825 3.63214 13.7573 4.75736C12.632 5.88258 11.9999 7.4087 11.9999 9V19.5C11.9999 19.8978 12.1579 20.2794 12.4392 20.5607C12.7205 20.842 13.1021 21 13.4999 21H19.4999C19.8977 21 20.2793 20.842 20.5606 20.5607C20.8419 20.2794 20.9999 19.8978 20.9999 19.5V13.5C20.9999 13.1022 21.1579 12.7206 21.4392 12.4393C21.7205 12.158 22.1021 12 22.4999 12H41.9999V3H17.9999ZM20.9999 45H11.9999C11.6675 44.9964 11.3457 44.8825 11.085 44.6762C10.8244 44.4698 10.6397 44.1827 10.5599 43.86L5.9999 25.86C5.95234 25.6687 5.94293 25.47 5.97223 25.275C6.00152 25.0801 6.06895 24.8929 6.17064 24.7241C6.27233 24.5552 6.4063 24.4081 6.56489 24.2911C6.72349 24.174 6.90359 24.0894 7.0949 24.042C7.22769 24.0116 7.3637 23.9975 7.4999 24H25.4999C25.8973 23.9887 26.2829 24.1356 26.572 24.4084C26.8611 24.6812 27.0301 25.0576 27.0419 25.455C27.0476 25.5913 27.0334 25.7277 26.9999 25.86L22.4999 43.86C22.4178 44.1928 22.2241 44.4875 21.9512 44.6949C21.6783 44.9023 21.3426 45.01 20.9999 45ZM10.9499 33H22.0799L23.5799 27H9.4199L10.9499 33Z" fill="#ffffff" />
    </g>
    <defs>
        <clipPath id="clip0_223_2143">
            <rect width="45" height="45" fill="#ffffff" />
        </clipPath>
    </defs>
</svg>