<svg width="24" height="33" viewBox="0 0 24 33" fill="none" xmlns="http://www.w3.org/2000/svg">
<path d="M21.2279 14.0844L12.6722 0.720875C12.5732 0.566339 12.437 0.439178 12.276 0.3511C12.1151 0.263022 11.9345 0.216858 11.751 0.216858C11.5675 0.216858 11.387 0.263022 11.226 0.3511C11.065 0.439178 10.9288 0.566339 10.8299 0.720875L2.27395 14.0845C0.79065 16.0967 -0.00653089 18.5324 4.03008e-05 21.0322C4.03008e-05 27.5117 5.27144 32.7832 11.751 32.7832C18.2306 32.7832 23.502 27.5118 23.502 21.0322C23.5086 18.5323 22.7113 16.0966 21.2279 14.0844ZM11.751 30.5957C6.47778 30.5957 2.18754 26.3056 2.18754 21.0322C2.18195 18.9878 2.83703 16.9963 4.05519 15.3544C4.06973 15.3347 4.08358 15.3146 4.09675 15.294L11.751 3.33911L19.405 15.2941C19.4181 15.3147 19.432 15.3349 19.4466 15.3545C20.6648 16.9963 21.32 18.9878 21.3145 21.0322C21.3145 26.3055 17.0243 30.5957 11.751 30.5957Z" fill="white"/>
</svg>
