<svg width="22" height="39" viewBox="0 0 22 39" fill="none" xmlns="http://www.w3.org/2000/svg">
    <path d="M11 0C8.08262 0 5.28473 1.13537 3.22183 3.15635C1.15893 5.17733 0 7.91836 0 10.7765C0 16.7189 6.19928 18.3769 6.63614 25.4016H15.3623C15.7991 18.3769 22 16.7189 22 10.7765C22 7.91836 20.8411 5.17733 18.7782 3.15635C16.7153 1.13537 13.9174 0 11 0V0ZM11 39C13.9763 39 14.9019 37.4189 15.191 36.4352H6.809C7.09814 37.4205 8.02371 39 11 39V39ZM6.67857 34.8926H15.3214V26.9427H6.67857V34.8926Z" fill="#ffffff" />
</svg>