<svg width="30" height="46" viewBox="0 0 30 46" fill="none" xmlns="http://www.w3.org/2000/svg">
    <path d="M25.8425 10.5735C23.3625 6.37176 19.8418 2.87983 15.6199 0.434437L14.8688 0L14.1176 0.434437C9.82383 2.91245 6.25841 6.47764 3.78011 10.7713C1.3018 15.0649 -0.00195788 19.9355 2.20685e-06 24.8931C2.20685e-06 25.216 0.00562739 25.5441 0.0165961 25.8681C0.165846 30.2608 1.84575 33.9571 4.87472 36.5573C7.1926 38.5471 10.1658 39.7618 13.3691 40.0516V45.2329H16.3691V21.2329H13.3688V37.0324C8.30025 36.4452 3.25566 32.8647 3.01463 25.7661C3.00469 25.4759 2.99963 25.1822 2.99963 24.8931C3.00855 20.6124 4.10179 16.4038 6.17732 12.6599C8.25285 8.91605 11.243 5.75904 14.8688 3.48347C18.4944 5.75908 21.4845 8.91612 23.56 12.66C25.6354 16.4038 26.7286 20.6124 26.7375 24.8931C26.7375 25.1822 26.7324 25.4759 26.7225 25.7662C26.5298 31.4449 23.2625 34.8718 19.3684 36.3164V39.4914C21.3891 38.9187 23.263 37.9179 24.8628 36.5571C27.8918 33.9569 29.5717 30.2606 29.7209 25.868C29.7319 25.544 29.7375 25.2159 29.7375 24.893C29.7402 19.8578 28.3953 14.9136 25.8425 10.5735Z" fill="#1CEF64" />
</svg>