<svg width="21" height="45" viewBox="0 0 21 45" fill="none" xmlns="http://www.w3.org/2000/svg">
<path d="M15.0366 35.1562C15.0362 35.9296 14.8203 36.6879 14.4124 37.3484C14.0046 38.0089 13.4205 38.5461 12.7241 38.9014C12.0276 39.2566 11.2456 39.4162 10.4634 39.3627C9.68116 39.3092 8.92892 39.0446 8.28884 38.598C7.64876 38.1513 7.14547 37.5398 6.83397 36.8301C6.52247 36.1204 6.41475 35.3399 6.52257 34.5739C6.63039 33.8079 6.94962 33.0859 7.44535 32.4867C7.94109 31.8876 8.59426 31.4343 9.3335 31.1766V18.2812C9.3335 17.9083 9.48371 17.5506 9.7511 17.2869C10.0185 17.0232 10.3811 16.875 10.7593 16.875C11.1374 16.875 11.5001 17.0232 11.7675 17.2869C12.0348 17.5506 12.1851 17.9083 12.1851 18.2812V31.1766C13.0194 31.4675 13.7416 32.0065 14.2524 32.7192C14.7631 33.432 15.0371 34.2835 15.0366 35.1562Z" fill="white"/>
<path d="M3.63037 7.03125C3.63037 5.16645 4.38145 3.37802 5.71838 2.05941C7.05531 0.74079 8.86857 0 10.7593 0C12.65 0 14.4632 0.74079 15.8002 2.05941C17.1371 3.37802 17.8882 5.16645 17.8882 7.03125V28.2656C19.2636 29.6502 20.1939 31.4044 20.5626 33.3083C20.9312 35.2123 20.7217 37.1812 19.9604 38.9682C19.1991 40.7552 17.9198 42.2807 16.2829 43.3535C14.6461 44.4263 12.7246 44.9986 10.7593 44.9986C8.794 44.9986 6.87247 44.4263 5.23562 43.3535C3.59877 42.2807 2.31947 40.7552 1.55814 38.9682C0.796806 37.1812 0.587327 35.2123 0.95597 33.3083C1.32461 31.4044 2.25497 29.6502 3.63037 28.2656V7.03125ZM10.7593 2.8125C9.62486 2.8125 8.5369 3.25697 7.73474 4.04814C6.93258 4.83931 6.48194 5.91237 6.48194 7.03125V29.4947L6.00573 29.9166C4.92947 30.8658 4.17082 32.1151 3.83019 33.4989C3.48955 34.8828 3.58298 36.336 4.09811 37.6664C4.61325 38.9967 5.5258 40.1414 6.715 40.949C7.90421 41.7566 9.31401 42.189 10.7579 42.189C12.2017 42.189 13.6115 41.7566 14.8007 40.949C15.9899 40.1414 16.9025 38.9967 17.4176 37.6664C17.9327 36.336 18.0261 34.8828 17.6855 33.4989C17.3449 32.1151 16.5862 30.8658 15.51 29.9166L15.0366 29.4947V7.03125C15.0366 5.91237 14.586 4.83931 13.7838 4.04814C12.9817 3.25697 11.8937 2.8125 10.7593 2.8125Z" fill="white"/>
</svg>
