<svg width="35" height="35" viewBox="0 0 35 35" fill="none" xmlns="http://www.w3.org/2000/svg">
    <path d="M17.5 1.75C29.75 1.75 33.25 6.8425 33.25 13.125C33.25 19.4075 29.75 24.5 17.5 24.5C5.25 24.5 1.75 19.4075 1.75 13.125C1.75 6.8425 5.25 1.75 17.5 1.75ZM9.625 15.75C11.0775 15.75 12.25 14.5775 12.25 13.125C12.25 11.6725 11.0775 10.5 9.625 10.5C8.1725 10.5 7 11.6725 7 13.125C7 14.5775 8.1725 15.75 9.625 15.75ZM17.5 15.75C18.9525 15.75 20.125 14.5775 20.125 13.125C20.125 11.6725 18.9525 10.5 17.5 10.5C16.0475 10.5 14.875 11.6725 14.875 13.125C14.875 14.5775 16.0475 15.75 17.5 15.75ZM25.375 15.75C26.8275 15.75 28 14.5775 28 13.125C28 11.6725 26.8275 10.5 25.375 10.5C23.9225 10.5 22.75 11.6725 22.75 13.125C22.75 14.5775 23.9225 15.75 25.375 15.75ZM10.5 25.375C11.9525 25.375 13.125 26.5475 13.125 28C13.125 29.4525 11.9525 30.625 10.5 30.625C9.0475 30.625 7.875 29.4525 7.875 28C7.875 26.5475 9.0475 25.375 10.5 25.375ZM5.25 28.875C6.2125 28.875 7 29.6625 7 30.625C7 31.5875 6.2125 32.375 5.25 32.375C4.2875 32.375 3.5 31.5875 3.5 30.625C3.5 29.6625 4.2875 28.875 5.25 28.875Z" fill="#8000FF"/>
</svg>