<svg width="16" height="31" viewBox="0 0 16 31" fill="none" xmlns="http://www.w3.org/2000/svg">
<path d="M9.12222 15.4286C9.75198 15.4286 10.2625 14.8529 10.2625 14.1429C10.2625 13.4328 9.75198 12.8571 9.12222 12.8571C8.49246 12.8571 7.98193 13.4328 7.98193 14.1429C7.98193 14.8529 8.49246 15.4286 9.12222 15.4286Z" fill="#1CEF64"/>
<path d="M7.41194 10.2857C7.72682 10.2857 7.98208 9.9979 7.98208 9.64286C7.98208 9.28782 7.72682 9 7.41194 9C7.09706 9 6.8418 9.28782 6.8418 9.64286C6.8418 9.9979 7.09706 10.2857 7.41194 10.2857Z" fill="#1CEF64"/>
<path d="M8.55208 7.71427C8.86696 7.71427 9.12222 7.42646 9.12222 7.07142C9.12222 6.71638 8.86696 6.42856 8.55208 6.42856C8.2372 6.42856 7.98193 6.71638 7.98193 7.07142C7.98193 7.42646 8.2372 7.71427 8.55208 7.71427Z" fill="#1CEF64"/>
<path d="M0 0V2.57143H2.28057V24.4286C2.28057 26.1335 2.88126 27.7687 3.95048 28.9743C5.01971 30.1798 6.46989 30.8571 7.98201 30.8571C9.49412 30.8571 10.9443 30.1798 12.0135 28.9743C13.0828 27.7687 13.6834 26.1335 13.6834 24.4286V2.57143H15.964V0H0ZM11.4029 2.57143V19.2857H7.98201C7.98201 18.9447 7.86187 18.6177 7.64802 18.3766C7.43418 18.1355 7.14414 18 6.84172 18C6.5393 18 6.24926 18.1355 6.03541 18.3766C5.82157 18.6177 5.70143 18.9447 5.70143 19.2857H4.56115V2.57143H11.4029Z" fill="#1CEF64"/>
</svg>
